<mxfile host="drawio-plugin" modified="2021-06-05T19:03:36.671Z" agent="5.0 (Macintosh; Intel Mac OS X 11_4_0) AppleWebKit/537.36 (KHTML, like Gecko) Chrome/87.0.4280.141 Safari/537.36" etag="_t_T3zQnzURBl6CLE4pY" version="14.6.6" type="embed"><diagram id="xtUdckMHJWJfkp9dimqK" name="第 1 页"><mxGraphModel dx="1635" dy="1225" grid="0" gridSize="10" guides="1" tooltips="1" connect="1" arrows="1" fold="1" page="0" pageScale="1" pageWidth="1169" pageHeight="827" math="0" shadow="0"><root><mxCell id="0"/><mxCell id="1" parent="0"/><mxCell id="innil9fEpi0C1AstSijo-1" value="BVH" style="swimlane;fontStyle=1;align=center;verticalAlign=top;childLayout=stackLayout;horizontal=1;startSize=26;horizontalStack=0;resizeParent=1;resizeParentMax=0;resizeLast=0;collapsible=1;marginBottom=0;fontFamily=Consolas;" parent="1" vertex="1"><mxGeometry x="257" y="180" width="206" height="164" as="geometry"/></mxCell><mxCell id="17" value="BVH* lchild, rchild" style="text;strokeColor=none;fillColor=none;align=left;verticalAlign=top;spacingLeft=4;spacingRight=4;overflow=hidden;rotatable=0;points=[[0,0.5],[1,0.5]];portConstraint=eastwest;fontFamily=Consolas;" vertex="1" parent="innil9fEpi0C1AstSijo-1"><mxGeometry y="26" width="206" height="26" as="geometry"/></mxCell><mxCell id="18" value="Object* object" style="text;strokeColor=none;fillColor=none;align=left;verticalAlign=top;spacingLeft=4;spacingRight=4;overflow=hidden;rotatable=0;points=[[0,0.5],[1,0.5]];portConstraint=eastwest;fontFamily=Consolas;" vertex="1" parent="innil9fEpi0C1AstSijo-1"><mxGeometry y="52" width="206" height="26" as="geometry"/></mxCell><mxCell id="19" value="BoundingBox box" style="text;strokeColor=none;fillColor=none;align=left;verticalAlign=top;spacingLeft=4;spacingRight=4;overflow=hidden;rotatable=0;points=[[0,0.5],[1,0.5]];portConstraint=eastwest;fontFamily=Consolas;" vertex="1" parent="innil9fEpi0C1AstSijo-1"><mxGeometry y="78" width="206" height="26" as="geometry"/></mxCell><mxCell id="16" value="" style="line;strokeWidth=1;fillColor=none;align=left;verticalAlign=middle;spacingTop=-1;spacingLeft=3;spacingRight=3;rotatable=0;labelPosition=right;points=[];portConstraint=eastwest;fontFamily=Consolas;" vertex="1" parent="innil9fEpi0C1AstSijo-1"><mxGeometry y="104" width="206" height="8" as="geometry"/></mxCell><mxCell id="innil9fEpi0C1AstSijo-73" value="BVH *build(Object[]);" style="text;strokeColor=none;fillColor=none;align=left;verticalAlign=top;spacingLeft=4;spacingRight=4;overflow=hidden;rotatable=0;points=[[0,0.5],[1,0.5]];portConstraint=eastwest;fontFamily=Consolas;" parent="innil9fEpi0C1AstSijo-1" vertex="1"><mxGeometry y="112" width="206" height="26" as="geometry"/></mxCell><mxCell id="innil9fEpi0C1AstSijo-4" value="Intersection intersect(Ray);" style="text;strokeColor=none;fillColor=none;align=left;verticalAlign=top;spacingLeft=4;spacingRight=4;overflow=hidden;rotatable=0;points=[[0,0.5],[1,0.5]];portConstraint=eastwest;fontFamily=Consolas;" parent="innil9fEpi0C1AstSijo-1" vertex="1"><mxGeometry y="138" width="206" height="26" as="geometry"/></mxCell><mxCell id="innil9fEpi0C1AstSijo-9" value="BoundingBox" style="swimlane;fontStyle=1;align=center;verticalAlign=top;childLayout=stackLayout;horizontal=1;startSize=26;horizontalStack=0;resizeParent=1;resizeParentMax=0;resizeLast=0;collapsible=1;marginBottom=0;fontFamily=Consolas;" parent="1" vertex="1"><mxGeometry x="-48" y="394" width="176" height="138" as="geometry"/></mxCell><mxCell id="innil9fEpi0C1AstSijo-10" value="Vec3 p_min, p_max" style="text;strokeColor=none;fillColor=none;align=left;verticalAlign=top;spacingLeft=4;spacingRight=4;overflow=hidden;rotatable=0;points=[[0,0.5],[1,0.5]];portConstraint=eastwest;fontFamily=Consolas;" parent="innil9fEpi0C1AstSijo-9" vertex="1"><mxGeometry y="26" width="176" height="26" as="geometry"/></mxCell><mxCell id="innil9fEpi0C1AstSijo-11" value="" style="line;strokeWidth=1;fillColor=none;align=left;verticalAlign=middle;spacingTop=-1;spacingLeft=3;spacingRight=3;rotatable=0;labelPosition=right;points=[];portConstraint=eastwest;fontFamily=Consolas;" parent="innil9fEpi0C1AstSijo-9" vertex="1"><mxGeometry y="52" width="176" height="8" as="geometry"/></mxCell><mxCell id="innil9fEpi0C1AstSijo-12" value="bool is_intersect(Ray)" style="text;strokeColor=none;fillColor=none;align=left;verticalAlign=top;spacingLeft=4;spacingRight=4;overflow=hidden;rotatable=0;points=[[0,0.5],[1,0.5]];portConstraint=eastwest;fontFamily=Consolas;" parent="innil9fEpi0C1AstSijo-9" vertex="1"><mxGeometry y="60" width="176" height="26" as="geometry"/></mxCell><mxCell id="10" value="void union(Vec3 point)" style="text;strokeColor=none;fillColor=none;align=left;verticalAlign=top;spacingLeft=4;spacingRight=4;overflow=hidden;rotatable=0;points=[[0,0.5],[1,0.5]];portConstraint=eastwest;fontFamily=Consolas;" vertex="1" parent="innil9fEpi0C1AstSijo-9"><mxGeometry y="86" width="176" height="26" as="geometry"/></mxCell><mxCell id="11" value="void union(BoundingBox)" style="text;strokeColor=none;fillColor=none;align=left;verticalAlign=top;spacingLeft=4;spacingRight=4;overflow=hidden;rotatable=0;points=[[0,0.5],[1,0.5]];portConstraint=eastwest;fontFamily=Consolas;" vertex="1" parent="innil9fEpi0C1AstSijo-9"><mxGeometry y="112" width="176" height="26" as="geometry"/></mxCell><mxCell id="innil9fEpi0C1AstSijo-13" value="Intersection" style="swimlane;fontStyle=1;align=center;verticalAlign=top;childLayout=stackLayout;horizontal=1;startSize=26;horizontalStack=0;resizeParent=1;resizeParentMax=0;resizeLast=0;collapsible=1;marginBottom=0;fontFamily=Consolas;" parent="1" vertex="1"><mxGeometry x="557.5" y="157" width="248" height="190" as="geometry"/></mxCell><mxCell id="innil9fEpi0C1AstSijo-14" value="Vec3 normal;" style="text;strokeColor=none;fillColor=none;align=left;verticalAlign=top;spacingLeft=4;spacingRight=4;overflow=hidden;rotatable=0;points=[[0,0.5],[1,0.5]];portConstraint=eastwest;fontFamily=Consolas;" parent="innil9fEpi0C1AstSijo-13" vertex="1"><mxGeometry y="26" width="248" height="26" as="geometry"/></mxCell><mxCell id="innil9fEpi0C1AstSijo-71" value="Vec3 position;" style="text;strokeColor=none;fillColor=none;align=left;verticalAlign=top;spacingLeft=4;spacingRight=4;overflow=hidden;rotatable=0;points=[[0,0.5],[1,0.5]];portConstraint=eastwest;fontFamily=Consolas;" parent="innil9fEpi0C1AstSijo-13" vertex="1"><mxGeometry y="52" width="248" height="26" as="geometry"/></mxCell><mxCell id="12" value="Vec2 text_coord" style="text;strokeColor=none;fillColor=none;align=left;verticalAlign=top;spacingLeft=4;spacingRight=4;overflow=hidden;rotatable=0;points=[[0,0.5],[1,0.5]];portConstraint=eastwest;fontFamily=Consolas;" vertex="1" parent="innil9fEpi0C1AstSijo-13"><mxGeometry y="78" width="248" height="26" as="geometry"/></mxCell><mxCell id="13" value="bool happened" style="text;strokeColor=none;fillColor=none;align=left;verticalAlign=top;spacingLeft=4;spacingRight=4;overflow=hidden;rotatable=0;points=[[0,0.5],[1,0.5]];portConstraint=eastwest;fontFamily=Consolas;" vertex="1" parent="innil9fEpi0C1AstSijo-13"><mxGeometry y="104" width="248" height="26" as="geometry"/></mxCell><mxCell id="14" value="Object* obj" style="text;strokeColor=none;fillColor=none;align=left;verticalAlign=top;spacingLeft=4;spacingRight=4;overflow=hidden;rotatable=0;points=[[0,0.5],[1,0.5]];portConstraint=eastwest;fontFamily=Consolas;" vertex="1" parent="innil9fEpi0C1AstSijo-13"><mxGeometry y="130" width="248" height="26" as="geometry"/></mxCell><mxCell id="innil9fEpi0C1AstSijo-15" value="" style="line;strokeWidth=1;fillColor=none;align=left;verticalAlign=middle;spacingTop=-1;spacingLeft=3;spacingRight=3;rotatable=0;labelPosition=right;points=[];portConstraint=eastwest;fontFamily=Consolas;" parent="innil9fEpi0C1AstSijo-13" vertex="1"><mxGeometry y="156" width="248" height="8" as="geometry"/></mxCell><mxCell id="innil9fEpi0C1AstSijo-16" value="Intersection intersect(Object, Ray)" style="text;strokeColor=none;fillColor=none;align=left;verticalAlign=top;spacingLeft=4;spacingRight=4;overflow=hidden;rotatable=0;points=[[0,0.5],[1,0.5]];portConstraint=eastwest;fontFamily=Consolas;" parent="innil9fEpi0C1AstSijo-13" vertex="1"><mxGeometry y="164" width="248" height="26" as="geometry"/></mxCell><mxCell id="innil9fEpi0C1AstSijo-17" value="Material" style="swimlane;fontStyle=1;align=center;verticalAlign=top;childLayout=stackLayout;horizontal=1;startSize=26;horizontalStack=0;resizeParent=1;resizeParentMax=0;resizeLast=0;collapsible=1;marginBottom=0;fontFamily=Consolas;" parent="1" vertex="1"><mxGeometry x="557.5" y="407" width="185" height="112" as="geometry"/></mxCell><mxCell id="innil9fEpi0C1AstSijo-18" value=" " style="text;strokeColor=none;fillColor=none;align=left;verticalAlign=top;spacingLeft=4;spacingRight=4;overflow=hidden;rotatable=0;points=[[0,0.5],[1,0.5]];portConstraint=eastwest;fontFamily=Consolas;" parent="innil9fEpi0C1AstSijo-17" vertex="1"><mxGeometry y="26" width="185" height="26" as="geometry"/></mxCell><mxCell id="innil9fEpi0C1AstSijo-19" value="" style="line;strokeWidth=1;fillColor=none;align=left;verticalAlign=middle;spacingTop=-1;spacingLeft=3;spacingRight=3;rotatable=0;labelPosition=right;points=[];portConstraint=eastwest;fontFamily=Consolas;" parent="innil9fEpi0C1AstSijo-17" vertex="1"><mxGeometry y="52" width="185" height="8" as="geometry"/></mxCell><mxCell id="innil9fEpi0C1AstSijo-20" value="float brdf(wi, wo);" style="text;strokeColor=none;fillColor=none;align=left;verticalAlign=top;spacingLeft=4;spacingRight=4;overflow=hidden;rotatable=0;points=[[0,0.5],[1,0.5]];portConstraint=eastwest;fontFamily=Consolas;" parent="innil9fEpi0C1AstSijo-17" vertex="1"><mxGeometry y="60" width="185" height="26" as="geometry"/></mxCell><mxCell id="innil9fEpi0C1AstSijo-74" value="pdf sample(intersection);" style="text;strokeColor=none;fillColor=none;align=left;verticalAlign=top;spacingLeft=4;spacingRight=4;overflow=hidden;rotatable=0;points=[[0,0.5],[1,0.5]];portConstraint=eastwest;fontFamily=Consolas;" parent="innil9fEpi0C1AstSijo-17" vertex="1"><mxGeometry y="86" width="185" height="26" as="geometry"/></mxCell><mxCell id="innil9fEpi0C1AstSijo-21" value="Object" style="swimlane;fontStyle=1;align=center;verticalAlign=top;childLayout=stackLayout;horizontal=1;startSize=26;horizontalStack=0;resizeParent=1;resizeParentMax=0;resizeLast=0;collapsible=1;marginBottom=0;fontFamily=Consolas;" parent="1" vertex="1"><mxGeometry x="270" y="420" width="180" height="86" as="geometry"/></mxCell><mxCell id="innil9fEpi0C1AstSijo-22" value="BoundingBox box" style="text;strokeColor=none;fillColor=none;align=left;verticalAlign=top;spacingLeft=4;spacingRight=4;overflow=hidden;rotatable=0;points=[[0,0.5],[1,0.5]];portConstraint=eastwest;fontFamily=Consolas;" parent="innil9fEpi0C1AstSijo-21" vertex="1"><mxGeometry y="26" width="180" height="26" as="geometry"/></mxCell><mxCell id="innil9fEpi0C1AstSijo-23" value="" style="line;strokeWidth=1;fillColor=none;align=left;verticalAlign=middle;spacingTop=-1;spacingLeft=3;spacingRight=3;rotatable=0;labelPosition=right;points=[];portConstraint=eastwest;fontFamily=Consolas;" parent="innil9fEpi0C1AstSijo-21" vertex="1"><mxGeometry y="52" width="180" height="8" as="geometry"/></mxCell><mxCell id="innil9fEpi0C1AstSijo-24" value="ObjectType type_get()" style="text;strokeColor=none;fillColor=none;align=left;verticalAlign=top;spacingLeft=4;spacingRight=4;overflow=hidden;rotatable=0;points=[[0,0.5],[1,0.5]];portConstraint=eastwest;fontFamily=Consolas;" parent="innil9fEpi0C1AstSijo-21" vertex="1"><mxGeometry y="60" width="180" height="26" as="geometry"/></mxCell><mxCell id="innil9fEpi0C1AstSijo-25" value="Ray" style="swimlane;fontStyle=1;align=center;verticalAlign=top;childLayout=stackLayout;horizontal=1;startSize=26;horizontalStack=0;resizeParent=1;resizeParentMax=0;resizeLast=0;collapsible=1;marginBottom=0;fontFamily=Consolas;" parent="1" vertex="1"><mxGeometry x="870" y="-37" width="160" height="112" as="geometry"/></mxCell><mxCell id="innil9fEpi0C1AstSijo-26" value="vec3 origin;" style="text;strokeColor=none;fillColor=none;align=left;verticalAlign=top;spacingLeft=4;spacingRight=4;overflow=hidden;rotatable=0;points=[[0,0.5],[1,0.5]];portConstraint=eastwest;fontFamily=Consolas;" parent="innil9fEpi0C1AstSijo-25" vertex="1"><mxGeometry y="26" width="160" height="26" as="geometry"/></mxCell><mxCell id="innil9fEpi0C1AstSijo-72" value="vec3 direction;" style="text;strokeColor=none;fillColor=none;align=left;verticalAlign=top;spacingLeft=4;spacingRight=4;overflow=hidden;rotatable=0;points=[[0,0.5],[1,0.5]];portConstraint=eastwest;fontFamily=Consolas;" parent="innil9fEpi0C1AstSijo-25" vertex="1"><mxGeometry y="52" width="160" height="26" as="geometry"/></mxCell><mxCell id="innil9fEpi0C1AstSijo-27" value="" style="line;strokeWidth=1;fillColor=none;align=left;verticalAlign=middle;spacingTop=-1;spacingLeft=3;spacingRight=3;rotatable=0;labelPosition=right;points=[];portConstraint=eastwest;fontFamily=Consolas;" parent="innil9fEpi0C1AstSijo-25" vertex="1"><mxGeometry y="78" width="160" height="8" as="geometry"/></mxCell><mxCell id="innil9fEpi0C1AstSijo-28" value=" " style="text;strokeColor=none;fillColor=none;align=left;verticalAlign=top;spacingLeft=4;spacingRight=4;overflow=hidden;rotatable=0;points=[[0,0.5],[1,0.5]];portConstraint=eastwest;fontFamily=Consolas;" parent="innil9fEpi0C1AstSijo-25" vertex="1"><mxGeometry y="86" width="160" height="26" as="geometry"/></mxCell><mxCell id="innil9fEpi0C1AstSijo-29" value="RTRender" style="swimlane;fontStyle=1;align=center;verticalAlign=top;childLayout=stackLayout;horizontal=1;startSize=26;horizontalStack=0;resizeParent=1;resizeParentMax=0;resizeLast=0;collapsible=1;marginBottom=0;fontFamily=Consolas;" parent="1" vertex="1"><mxGeometry x="550" y="-50" width="200" height="138" as="geometry"/></mxCell><mxCell id="innil9fEpi0C1AstSijo-30" value=" " style="text;strokeColor=none;fillColor=none;align=left;verticalAlign=top;spacingLeft=4;spacingRight=4;overflow=hidden;rotatable=0;points=[[0,0.5],[1,0.5]];portConstraint=eastwest;fontFamily=Consolas;" parent="innil9fEpi0C1AstSijo-29" vertex="1"><mxGeometry y="26" width="200" height="26" as="geometry"/></mxCell><mxCell id="innil9fEpi0C1AstSijo-31" value="" style="line;strokeWidth=1;fillColor=none;align=left;verticalAlign=middle;spacingTop=-1;spacingLeft=3;spacingRight=3;rotatable=0;labelPosition=right;points=[];portConstraint=eastwest;fontFamily=Consolas;" parent="innil9fEpi0C1AstSijo-29" vertex="1"><mxGeometry y="52" width="200" height="8" as="geometry"/></mxCell><mxCell id="innil9fEpi0C1AstSijo-32" value="void rendering;" style="text;strokeColor=none;fillColor=none;align=left;verticalAlign=top;spacingLeft=4;spacingRight=4;overflow=hidden;rotatable=0;points=[[0,0.5],[1,0.5]];portConstraint=eastwest;fontFamily=Consolas;" parent="innil9fEpi0C1AstSijo-29" vertex="1"><mxGeometry y="60" width="200" height="26" as="geometry"/></mxCell><mxCell id="innil9fEpi0C1AstSijo-75" value="Intersection cast_ray();" style="text;strokeColor=none;fillColor=none;align=left;verticalAlign=top;spacingLeft=4;spacingRight=4;overflow=hidden;rotatable=0;points=[[0,0.5],[1,0.5]];portConstraint=eastwest;fontFamily=Consolas;" parent="innil9fEpi0C1AstSijo-29" vertex="1"><mxGeometry y="86" width="200" height="26" as="geometry"/></mxCell><mxCell id="innil9fEpi0C1AstSijo-76" value="Radiance shading(); 局部着色" style="text;strokeColor=none;fillColor=none;align=left;verticalAlign=top;spacingLeft=4;spacingRight=4;overflow=hidden;rotatable=0;points=[[0,0.5],[1,0.5]];portConstraint=eastwest;fontFamily=Consolas;" parent="innil9fEpi0C1AstSijo-29" vertex="1"><mxGeometry y="112" width="200" height="26" as="geometry"/></mxCell><mxCell id="innil9fEpi0C1AstSijo-33" value="Scene" style="swimlane;fontStyle=1;align=center;verticalAlign=top;childLayout=stackLayout;horizontal=1;startSize=26;horizontalStack=0;resizeParent=1;resizeParentMax=0;resizeLast=0;collapsible=1;marginBottom=0;fontFamily=Consolas;" parent="1" vertex="1"><mxGeometry x="280" y="10" width="160" height="112" as="geometry"/></mxCell><mxCell id="innil9fEpi0C1AstSijo-34" value="BVH *root;" style="text;strokeColor=none;fillColor=none;align=left;verticalAlign=top;spacingLeft=4;spacingRight=4;overflow=hidden;rotatable=0;points=[[0,0.5],[1,0.5]];portConstraint=eastwest;fontFamily=Consolas;" parent="innil9fEpi0C1AstSijo-33" vertex="1"><mxGeometry y="26" width="160" height="26" as="geometry"/></mxCell><mxCell id="innil9fEpi0C1AstSijo-35" value="" style="line;strokeWidth=1;fillColor=none;align=left;verticalAlign=middle;spacingTop=-1;spacingLeft=3;spacingRight=3;rotatable=0;labelPosition=right;points=[];portConstraint=eastwest;fontFamily=Consolas;" parent="innil9fEpi0C1AstSijo-33" vertex="1"><mxGeometry y="52" width="160" height="8" as="geometry"/></mxCell><mxCell id="innil9fEpi0C1AstSijo-77" value="void add(Object*);" style="text;strokeColor=none;fillColor=none;align=left;verticalAlign=top;spacingLeft=4;spacingRight=4;overflow=hidden;rotatable=0;points=[[0,0.5],[1,0.5]];portConstraint=eastwest;fontFamily=Consolas;" parent="innil9fEpi0C1AstSijo-33" vertex="1"><mxGeometry y="60" width="160" height="26" as="geometry"/></mxCell><mxCell id="innil9fEpi0C1AstSijo-36" value="void acc_build();" style="text;strokeColor=none;fillColor=none;align=left;verticalAlign=top;spacingLeft=4;spacingRight=4;overflow=hidden;rotatable=0;points=[[0,0.5],[1,0.5]];portConstraint=eastwest;fontFamily=Consolas;" parent="innil9fEpi0C1AstSijo-33" vertex="1"><mxGeometry y="86" width="160" height="26" as="geometry"/></mxCell><mxCell id="innil9fEpi0C1AstSijo-37" value="Triangle" style="swimlane;fontStyle=1;align=center;verticalAlign=top;childLayout=stackLayout;horizontal=1;startSize=26;horizontalStack=0;resizeParent=1;resizeParentMax=0;resizeLast=0;collapsible=1;marginBottom=0;fontFamily=Consolas;" parent="1" vertex="1"><mxGeometry x="144" y="639" width="180" height="112" as="geometry"/></mxCell><mxCell id="2" value="Vec3 A, B, C" style="text;strokeColor=none;fillColor=none;align=left;verticalAlign=top;spacingLeft=4;spacingRight=4;overflow=hidden;rotatable=0;points=[[0,0.5],[1,0.5]];portConstraint=eastwest;fontFamily=Consolas;" vertex="1" parent="innil9fEpi0C1AstSijo-37"><mxGeometry y="26" width="180" height="26" as="geometry"/></mxCell><mxCell id="3" value="Vec3 normal" style="text;strokeColor=none;fillColor=none;align=left;verticalAlign=top;spacingLeft=4;spacingRight=4;overflow=hidden;rotatable=0;points=[[0,0.5],[1,0.5]];portConstraint=eastwest;fontFamily=Consolas;" vertex="1" parent="innil9fEpi0C1AstSijo-37"><mxGeometry y="52" width="180" height="26" as="geometry"/></mxCell><mxCell id="4" value="" style="line;strokeWidth=1;fillColor=none;align=left;verticalAlign=middle;spacingTop=-1;spacingLeft=3;spacingRight=3;rotatable=0;labelPosition=right;points=[];portConstraint=eastwest;fontFamily=Consolas;" vertex="1" parent="innil9fEpi0C1AstSijo-37"><mxGeometry y="78" width="180" height="8" as="geometry"/></mxCell><mxCell id="innil9fEpi0C1AstSijo-40" value="Intersection intersect();" style="text;strokeColor=none;fillColor=none;align=left;verticalAlign=top;spacingLeft=4;spacingRight=4;overflow=hidden;rotatable=0;points=[[0,0.5],[1,0.5]];portConstraint=eastwest;fontFamily=Consolas;" parent="innil9fEpi0C1AstSijo-37" vertex="1"><mxGeometry y="86" width="180" height="26" as="geometry"/></mxCell><mxCell id="innil9fEpi0C1AstSijo-41" value="MeshTriangle" style="swimlane;fontStyle=1;align=center;verticalAlign=top;childLayout=stackLayout;horizontal=1;startSize=26;horizontalStack=0;resizeParent=1;resizeParentMax=0;resizeLast=0;collapsible=1;marginBottom=0;fontFamily=Consolas;" parent="1" vertex="1"><mxGeometry x="384" y="639" width="215" height="138" as="geometry"/></mxCell><mxCell id="innil9fEpi0C1AstSijo-44" value="BVH root" style="text;strokeColor=none;fillColor=none;align=left;verticalAlign=top;spacingLeft=4;spacingRight=4;overflow=hidden;rotatable=0;points=[[0,0.5],[1,0.5]];portConstraint=eastwest;fontFamily=Consolas;" parent="innil9fEpi0C1AstSijo-41" vertex="1"><mxGeometry y="26" width="215" height="26" as="geometry"/></mxCell><mxCell id="5" value="" style="line;strokeWidth=1;fillColor=none;align=left;verticalAlign=middle;spacingTop=-1;spacingLeft=3;spacingRight=3;rotatable=0;labelPosition=right;points=[];portConstraint=eastwest;fontFamily=Consolas;" vertex="1" parent="innil9fEpi0C1AstSijo-41"><mxGeometry y="52" width="215" height="8" as="geometry"/></mxCell><mxCell id="6" value="MeshTriangle[] mesh_load()" style="text;strokeColor=none;fillColor=none;align=left;verticalAlign=top;spacingLeft=4;spacingRight=4;overflow=hidden;rotatable=0;points=[[0,0.5],[1,0.5]];portConstraint=eastwest;fontFamily=Consolas;" vertex="1" parent="innil9fEpi0C1AstSijo-41"><mxGeometry y="60" width="215" height="26" as="geometry"/></mxCell><mxCell id="7" value="MeshTriangle[] process_ainode()" style="text;strokeColor=none;fillColor=none;align=left;verticalAlign=top;spacingLeft=4;spacingRight=4;overflow=hidden;rotatable=0;points=[[0,0.5],[1,0.5]];portConstraint=eastwest;fontFamily=Consolas;" vertex="1" parent="innil9fEpi0C1AstSijo-41"><mxGeometry y="86" width="215" height="26" as="geometry"/></mxCell><mxCell id="8" value="MeshTriangle process_aimesh()" style="text;strokeColor=none;fillColor=none;align=left;verticalAlign=top;spacingLeft=4;spacingRight=4;overflow=hidden;rotatable=0;points=[[0,0.5],[1,0.5]];portConstraint=eastwest;fontFamily=Consolas;" vertex="1" parent="innil9fEpi0C1AstSijo-41"><mxGeometry y="112" width="215" height="26" as="geometry"/></mxCell><mxCell id="innil9fEpi0C1AstSijo-54" value="1" style="endArrow=open;html=1;endSize=12;startArrow=diamondThin;startSize=14;startFill=1;edgeStyle=orthogonalEdgeStyle;align=left;verticalAlign=bottom;fontFamily=Consolas;" parent="1" source="innil9fEpi0C1AstSijo-21" target="innil9fEpi0C1AstSijo-17" edge="1"><mxGeometry x="-0.7778" y="3" relative="1" as="geometry"><mxPoint x="80" y="730" as="sourcePoint"/><mxPoint x="240" y="730" as="targetPoint"/><mxPoint x="1" as="offset"/></mxGeometry></mxCell><mxCell id="innil9fEpi0C1AstSijo-55" value="Extends" style="endArrow=block;endSize=16;endFill=0;html=1;fontFamily=Consolas;edgeStyle=orthogonalEdgeStyle;" parent="1" source="innil9fEpi0C1AstSijo-41" target="innil9fEpi0C1AstSijo-21" edge="1"><mxGeometry width="160" relative="1" as="geometry"><mxPoint x="300" y="630" as="sourcePoint"/><mxPoint x="430" y="516" as="targetPoint"/></mxGeometry></mxCell><mxCell id="innil9fEpi0C1AstSijo-56" value="Use" style="endArrow=open;endSize=12;dashed=1;html=1;fontFamily=Consolas;edgeStyle=orthogonalEdgeStyle;" parent="1" source="innil9fEpi0C1AstSijo-29" target="innil9fEpi0C1AstSijo-33" edge="1"><mxGeometry width="160" relative="1" as="geometry"><mxPoint x="270" y="700" as="sourcePoint"/><mxPoint x="430" y="700" as="targetPoint"/></mxGeometry></mxCell><mxCell id="innil9fEpi0C1AstSijo-57" value="1" style="endArrow=open;html=1;endSize=12;startArrow=diamondThin;startSize=14;startFill=1;edgeStyle=orthogonalEdgeStyle;align=left;verticalAlign=bottom;fontFamily=Consolas;" parent="1" source="innil9fEpi0C1AstSijo-33" target="innil9fEpi0C1AstSijo-1" edge="1"><mxGeometry x="-0.3793" y="10" relative="1" as="geometry"><mxPoint x="350" y="393" as="sourcePoint"/><mxPoint x="260" y="415" as="targetPoint"/><mxPoint as="offset"/></mxGeometry></mxCell><mxCell id="innil9fEpi0C1AstSijo-58" value="1" style="endArrow=open;html=1;endSize=12;startArrow=diamondThin;startSize=14;startFill=1;edgeStyle=orthogonalEdgeStyle;align=left;verticalAlign=bottom;fontFamily=Consolas;" parent="1" source="innil9fEpi0C1AstSijo-21" target="innil9fEpi0C1AstSijo-9" edge="1"><mxGeometry x="-0.5556" y="17" relative="1" as="geometry"><mxPoint x="800" y="330" as="sourcePoint"/><mxPoint x="1000" y="459" as="targetPoint"/><mxPoint as="offset"/></mxGeometry></mxCell><mxCell id="innil9fEpi0C1AstSijo-60" value="1" style="endArrow=open;html=1;endSize=12;startArrow=diamondThin;startSize=14;startFill=1;edgeStyle=orthogonalEdgeStyle;align=left;verticalAlign=bottom;fontFamily=Consolas;" parent="1" source="innil9fEpi0C1AstSijo-1" target="innil9fEpi0C1AstSijo-21" edge="1"><mxGeometry x="-0.7391" y="10" relative="1" as="geometry"><mxPoint x="510" y="393" as="sourcePoint"/><mxPoint x="410" y="340" as="targetPoint"/><mxPoint as="offset"/></mxGeometry></mxCell><mxCell id="innil9fEpi0C1AstSijo-63" value="Use" style="endArrow=open;endSize=12;dashed=1;html=1;fontFamily=Consolas;edgeStyle=orthogonalEdgeStyle;" parent="1" source="innil9fEpi0C1AstSijo-29" target="innil9fEpi0C1AstSijo-25" edge="1"><mxGeometry width="160" relative="1" as="geometry"><mxPoint x="840" y="82.99999999999989" as="sourcePoint"/><mxPoint x="900" y="82.99999999999989" as="targetPoint"/></mxGeometry></mxCell><mxCell id="15" value="Extends" style="endArrow=block;endSize=16;endFill=0;html=1;fontFamily=Consolas;edgeStyle=orthogonalEdgeStyle;exitX=0.5;exitY=0;exitDx=0;exitDy=0;" edge="1" parent="1" source="innil9fEpi0C1AstSijo-37" target="innil9fEpi0C1AstSijo-21"><mxGeometry width="160" relative="1" as="geometry"><mxPoint x="370" y="615" as="sourcePoint"/><mxPoint x="370" y="516" as="targetPoint"/></mxGeometry></mxCell></root></mxGraphModel></diagram></mxfile>